<?xml version="1.0" encoding="UTF-8" standalone="no"?>
<svg id="Layer_1" data-name="Layer 1" xmlns="http://www.w3.org/2000/svg" width="192" height="192" viewBox="0 0 64 64">
    <circle cx="32" cy="32" r="13" style="fill:#63998f"/>
    <path d="M45,32A13,13,0,0,1,32,45c3.83,0,6.93-5.82,6.93-13S35.83,19,32,19A13,13,0,0,1,45,32Z" style="fill:#96e6d6"/>
    <path d="M32,19V45c-3.83,0-6.93-5.82-6.93-13S28.17,19,32,19Z" style="fill:#74b3a6"/>
    <path d="M38.93,32c0,7.18-3.1,13-6.93,13V19C35.83,19,38.93,24.82,38.93,32Z" style="fill:#85ccbe"/>
    <circle cx="9" cy="9" r="7" style="fill:#d3e3f8"/>
    <circle cx="9" cy="7.25" r="1.75" style="fill:#ffd9a6"/>
    <path d="M12,11.65v3.67a6.958,6.958,0,0,1-6,0V11.65A1.694,1.694,0,0,1,7.69,9.96h2.62A1.694,1.694,0,0,1,12,11.65Z"
          style="fill:#7cb2f8"/>
    <circle cx="55" cy="9" r="7" style="fill:#d3e3f8"/>
    <circle cx="55" cy="7.25" r="1.75" style="fill:#ffd9a6"/>
    <path d="M58,11.65v3.67a6.958,6.958,0,0,1-6,0V11.65a1.694,1.694,0,0,1,1.69-1.69h2.62A1.694,1.694,0,0,1,58,11.65Z"
          style="fill:#7cb2f8"/>
    <circle cx="55" cy="55" r="7" style="fill:#d3e3f8"/>
    <circle cx="55" cy="53.25" r="1.75" style="fill:#ffd9a6"/>
    <path d="M58,57.65v3.67a6.958,6.958,0,0,1-6,0V57.65a1.694,1.694,0,0,1,1.69-1.69h2.62A1.694,1.694,0,0,1,58,57.65Z"
          style="fill:#7cb2f8"/>
    <circle cx="9" cy="55" r="7" style="fill:#d3e3f8"/>
    <circle cx="9" cy="53.25" r="1.75" style="fill:#ffd9a6"/>
    <path d="M12,57.65v3.67a6.958,6.958,0,0,1-6,0V57.65a1.694,1.694,0,0,1,1.69-1.69h2.62A1.694,1.694,0,0,1,12,57.65Z"
          style="fill:#7cb2f8"/>
    <circle cx="56" cy="32" r="3" style="fill:#d99899"/>
    <circle cx="8" cy="32" r="3" style="fill:#d99899"/>
    <circle cx="32" cy="8" r="3" style="fill:#d99899"/>
    <circle cx="32" cy="56" r="3" style="fill:#d99899"/>
    <path d="M32,18A14,14,0,1,0,46,32,14.015,14.015,0,0,0,32,18Zm-5.053,3.131a14.163,14.163,0,0,0-1.634,3.257c-.758-.151-1.466-.325-2.113-.519A12.049,12.049,0,0,1,26.947,21.131ZM21.9,25.552a22.773,22.773,0,0,0,2.836.76A23.465,23.465,0,0,0,24.1,31H20.051A11.907,11.907,0,0,1,21.9,25.552Zm0,12.9A11.9,11.9,0,0,1,20.051,33H24.1a23.456,23.456,0,0,0,.636,4.685A22.16,22.16,0,0,0,21.9,38.449Zm1.3,1.68c.654-.2,1.359-.374,2.113-.522a14.185,14.185,0,0,0,1.636,3.262A12.052,12.052,0,0,1,23.2,40.129ZM31,43.808c-1.47-.53-2.771-2.2-3.668-4.52,1.164-.146,2.4-.237,3.668-.268Zm0-6.788a38.747,38.747,0,0,0-4.28.335A21.549,21.549,0,0,1,26.093,33H31ZM31,31H26.093a21.46,21.46,0,0,1,.626-4.353A37.941,37.941,0,0,0,31,26.979Zm0-6.02a36.479,36.479,0,0,1-3.67-.265c.9-2.326,2.2-3.992,3.67-4.523Zm11.1.571A11.9,11.9,0,0,1,43.949,31H39.905a23.456,23.456,0,0,0-.636-4.685A22.16,22.16,0,0,0,42.1,25.551Zm-1.3-1.68c-.654.2-1.359.374-2.113.522a14.185,14.185,0,0,0-1.636-3.262A12.052,12.052,0,0,1,40.8,23.871ZM33,20.192c1.47.53,2.771,2.2,3.668,4.52-1.164.146-2.4.237-3.668.268Zm0,6.788a38.747,38.747,0,0,0,4.28-.335A21.549,21.549,0,0,1,37.907,31H33ZM33,33h4.907a21.549,21.549,0,0,1-.627,4.355A38.747,38.747,0,0,0,33,37.02Zm0,10.808V39.02c1.272.031,2.5.122,3.668.268C35.771,41.613,34.47,43.278,33,43.808Zm4.053-.939a14.185,14.185,0,0,0,1.636-3.262c.754.148,1.459.324,2.113.522A12.052,12.052,0,0,1,37.053,42.869Zm5.05-4.42a22.16,22.16,0,0,0-2.834-.764A23.456,23.456,0,0,0,39.905,33h4.044A11.9,11.9,0,0,1,42.1,38.449Z"
          style="fill:#404040"/>
    <path d="M9,17a7.953,7.953,0,0,0,4.9-1.688L19.983,21.4,21.4,19.983,15.312,13.9A7.991,7.991,0,1,0,9,17Zm2-2.35a5.889,5.889,0,0,1-4,0v-3a.689.689,0,0,1,.687-.688h2.625a.689.689,0,0,1,.688.688ZM8.25,7.25A.75.75,0,1,1,9,8,.75.75,0,0,1,8.25,7.25ZM9,3a5.992,5.992,0,0,1,4,10.46V11.651a2.684,2.684,0,0,0-1.959-2.575,2.75,2.75,0,1,0-4.082,0A2.684,2.684,0,0,0,5,11.651V13.46A5.992,5.992,0,0,1,9,3Z"
          style="fill:#404040"/>
    <path d="M55,1a7.987,7.987,0,0,0-6.312,12.9L42.6,19.983,44.017,21.4,50.1,15.312A8,8,0,1,0,55,1Zm2,13.65a5.889,5.889,0,0,1-4,0v-3a.689.689,0,0,1,.687-.688h2.625a.689.689,0,0,1,.688.688Zm-2.75-7.4A.75.75,0,1,1,55,8,.75.75,0,0,1,54.25,7.25ZM59,13.46V11.651a2.684,2.684,0,0,0-1.959-2.575,2.75,2.75,0,1,0-4.082,0A2.684,2.684,0,0,0,51,11.651V13.46a6,6,0,1,1,8,0Z"
          style="fill:#404040"/>
    <path d="M9,63a7.987,7.987,0,0,0,6.312-12.9L21.4,44.017,19.983,42.6,13.9,48.688A8,8,0,1,0,9,63Zm2-2.35a5.889,5.889,0,0,1-4,0v-3a.689.689,0,0,1,.687-.688h2.625a.689.689,0,0,1,.688.688Zm-2.75-7.4A.75.75,0,1,1,9,54,.75.75,0,0,1,8.25,53.25ZM9,49a5.992,5.992,0,0,1,4,10.46V57.651a2.684,2.684,0,0,0-1.959-2.575,2.75,2.75,0,1,0-4.082,0A2.684,2.684,0,0,0,5,57.651V59.46A5.992,5.992,0,0,1,9,49Z"
          style="fill:#404040"/>
    <path d="M55,47a7.953,7.953,0,0,0-4.9,1.688L44.017,42.6,42.6,44.017,48.688,50.1A7.991,7.991,0,1,0,55,47Zm2,13.65a5.889,5.889,0,0,1-4,0v-3a.689.689,0,0,1,.687-.688h2.625a.689.689,0,0,1,.688.688Zm-2.75-7.4A.75.75,0,1,1,55,54,.75.75,0,0,1,54.25,53.25ZM59,59.46V57.651a2.684,2.684,0,0,0-1.959-2.575,2.75,2.75,0,1,0-4.082,0A2.684,2.684,0,0,0,51,57.651V59.46a6,6,0,1,1,8,0Z"
          style="fill:#404040"/>
    <path d="M56,36a4,4,0,1,0-3.858-5H48v2h4.142A4,4,0,0,0,56,36Zm0-6a2,2,0,1,1-2,2A2,2,0,0,1,56,30Z"
          style="fill:#404040"/>
    <path d="M8,28a4,4,0,1,0,3.858,5H16V31H11.858A4,4,0,0,0,8,28Zm0,6a2,2,0,1,1,2-2A2,2,0,0,1,8,34Z"
          style="fill:#404040"/>
    <path d="M31,48v4.142a4,4,0,1,0,2,0V48Zm3,8a2,2,0,1,1-2-2A2,2,0,0,1,34,56Z" style="fill:#404040"/>
    <path d="M33,16V11.858a4,4,0,1,0-2,0V16ZM30,8a2,2,0,1,1,2,2A2,2,0,0,1,30,8Z" style="fill:#404040"/>
</svg>