<?xml version="1.0" encoding="utf-8"?>
<!-- Generator: Adobe Illustrator 22.0.0, SVG Export Plug-In . SVG Version: 6.00 Build 0)  -->
<svg version="1.1" id="图层_1" xmlns="http://www.w3.org/2000/svg" xmlns:xlink="http://www.w3.org/1999/xlink" x="0px" y="0px"
	 viewBox="0 0 1919.999 1080" style="enable-background:new 0 0 1919.999 1080;" xml:space="preserve">
<style type="text/css">
	.st0{fill:#CBE2F4;}
	.st1{fill:#B2D5EF;}
	.st2{fill:#BAD9F0;}
	.st3{fill:#CAE2F4;}
	.st4{fill:#A8D0ED;}
	.st5{fill:#90C2E8;}
	.st6{fill:#AFD3EE;}
	.st7{fill:#D1E6F5;}
	.st8{fill:#D3E7F6;}
	.st9{fill:#0979CC;}
	.st10{fill:#57BFFF;}
	.st11{fill:#1983D1;}
	.st12{fill:#3794D8;}
	.st13{fill:#298CD5;}
	.st14{fill:#45A0E0;}
	.st15{fill:#49A2E1;}
	.st16{fill:#3997DA;}
	.st17{fill:#1B84D2;}
	.st18{fill:#1E85D1;}
	.st19{fill:#2B8ED6;}
	.st20{fill:#449DDD;}
	.st21{fill:#4DA4E2;}
</style>
<g>
	<g>
		<path class="st0" d="M-243.907,410.295c-2.321-2.731-0.966-6.023-1.385-9.045c-0.418-3.011,0.99-6.319-1.458-9c0-4,0-8,0-12
			c0.562-0.013,1.123-0.027,1.684-0.04C-243.388,390.188-243.779,400.247-243.907,410.295z"/>
		<path class="st1" d="M-245.065,380.21c-0.562,0.013-1.123,0.027-1.685,0.04c0-10.5,0-21,0-31.5
			c0.512-0.004,1.025-0.008,1.537-0.012C-243.785,359.222-245.414,369.72-245.065,380.21z"/>
		<path class="st2" d="M356.25,1439.25c-0.046-0.424-0.074-0.848-0.083-1.274c9.552-0.011,19.105-0.022,28.657-0.034
			c-0.023,0.436-0.048,0.872-0.074,1.308C375.25,1439.25,365.75,1439.25,356.25,1439.25z"/>
		<path class="st3" d="M2075.485-126.814c0.425-0.046,0.847-0.025,1.265,0.064c0,8.5,0,17,0,25.5l-0.621,0.096l-0.628-0.03
			C2075.496-109.727,2075.49-118.27,2075.485-126.814z"/>
		<path class="st4" d="M1931.25-249.75c6,0,12,0,18,0c-0.021,0.433-0.002,0.865,0.056,1.295c-6.039-0.013-12.078-0.026-18.117-0.04
			C1931.253-248.911,1931.273-249.329,1931.25-249.75z"/>
		<path class="st5" d="M-245.213,348.738c-0.512,0.004-1.025,0.008-1.537,0.012c0-6,0-12,0-18c0.527,0.008,1.053,0.016,1.58,0.025
			C-245.184,336.762-245.199,342.75-245.213,348.738z"/>
		<path class="st6" d="M-245.17,330.775c-0.527-0.008-1.053-0.016-1.58-0.025c0-2.5,0-5,0-7.5c2.388-1.374,0.711-4.574,2.745-6.107
			C-242.976,321.808-244.793,326.23-245.17,330.775z"/>
		<path class="st7" d="M1931.25-249.75c0.023,0.421,0.003,0.839-0.061,1.255c-1.491,0.036-2.982,0.071-4.473,0.107
			c0.033-0.453,0.045-0.908,0.034-1.362C1928.25-249.75,1929.75-249.75,1931.25-249.75z"/>
		<path class="st8" d="M1949.306-248.455c-0.059-0.43-0.077-0.862-0.056-1.295c1.5,0,3,0,4.5,0c-0.011,0.45,0,0.9,0.035,1.349
			C1952.292-248.419,1950.799-248.437,1949.306-248.455z"/>
		<path class="st9" d="M1949.306-248.455c1.493,0.018,2.986,0.036,4.479,0.054c17.667,1.679,34.978,4.822,51.392,11.956
			c39.191,17.032,62.749,46.091,68.976,88.782c1.014,6.956,0.76,13.91,1.332,20.849c0.005,8.543,0.01,17.087,0.016,25.63
			c-1.174,52.191-10.803,103.214-22.036,153.926c-29.988,135.383-73.924,266.372-125.909,394.745
			c-39.875,98.468-86.817,193.655-134.999,288.244c-30.726,60.319-62.587,120.038-95.38,179.258
			c-1.312,2.37-2.179,5.058-4.355,6.895c-2.075-1.292-3.853-1.908-5.74,0.633c-3.712,5-7.784,9.731-11.589,14.664
			c-23.023,29.852-48.275,57.786-74.039,85.239c-12.116,12.91-24.877,25.218-37.957,37.218
			c-20.605,18.904-41.842,36.969-64.39,53.504c-42.748,31.348-88.342,57.083-139.79,71.422
			c-25.54,7.118-51.531,11.026-78.028,11.526c-6.719,0.127-13.42-0.707-20.106-1.045c-22.845-1.153-44.91-5.926-66.422-13.211
			c-34.089-11.544-65.162-28.73-93.074-51.529c0.696-0.628,1.391-1.257,2.087-1.885c9.831,4.369,19.795,8.283,30.672,9.159
			c19.353,1.557,36.44-4.569,52.025-15.523c16.58-11.653,29.585-26.773,41.254-43.147c17.787-24.96,31.346-52.232,43.476-80.238
			c29.696-68.563,54.281-139.043,78.054-209.81c44.519-132.518,85.125-266.257,124.597-400.347
			c24.738-84.037,49.87-167.995,71.86-252.774c24.409-94.102,72.55-174.192,137.625-244.991
			c30.521-33.206,63.695-63.525,101.823-88.056c32.618-20.987,67.366-36.947,105.298-45.646c11.954-2.741,24.103-4.078,36.257-5.435
			c1.491-0.036,2.982-0.071,4.473-0.107C1937.228-248.481,1943.267-248.468,1949.306-248.455z"/>
		<path class="st9" d="M-245.17,330.775c0.377-4.545,2.194-8.967,1.165-13.632c4.281-36.14,14.111-70.443,33.763-101.456
			c8.895-14.037,19.473-26.606,32.884-36.607c27.668-20.634,57.714-23.451,89.312-11.081c25.122,9.835,45.933,25.805,63.739,46.118
			c32.591,37.18,57.647,78.836,77.509,124.039C103.126,451.772,153.7,565.103,203.971,678.568
			c45.72,103.19,91.245,206.467,137.194,309.554c8.938,20.053,19.354,39.452,29.228,59.082
			c10.101,20.081,20.406,40.059,30.542,60.122c1.795,3.553,3.199,7.302,4.783,10.961c2.857,11.793,8.6,22.206,15.39,32.11
			c11.533,16.824,27.532,27.258,47.12,32.148c18.16,4.534,36.667,3.68,54.949,1.355c22.423-2.851,44.738-6.638,67.022-10.469
			c25.549-4.393,51.134-7.861,77.149-7.398c13.212,0.235,26.457-0.124,39.539,2.042c25.987,4.304,50.901,11.853,73.811,25.215
			c-0.668,1.309-1.965,1.357-3.173,1.581c-13.274-5.115-26.705-9.407-40.989-11.009c-19.315-2.167-37.666,1.248-55.781,7.593
			c-28.838,10.101-50.602,29.284-69.406,52.644c-18.64,23.155-35.658,47.489-53.111,71.512
			c-15.992,22.013-32.099,43.944-50.404,64.13c-5.528,6.096-11.373,11.919-17.29,17.643c-18.353,17.755-39.532,30.019-65.073,34.525
			c-13.51,2.384-26.988,4.748-40.646,6.032c-9.552,0.011-19.105,0.022-28.657,0.034c-50.071-4.141-91.423-26.558-127.16-60.708
			c-27.122-25.918-49.309-55.74-68.314-87.912c-39.122-66.227-76.458-133.474-113.806-200.711
			C-19.803,968.581-85.319,847.89-146.932,725.123c-23.404-46.633-45.937-93.672-66.158-141.814
			c-12.493-29.744-19.68-60.595-23.47-92.512c-3.18-26.78-5.711-53.593-7.346-80.502c0.128-10.048,0.519-20.106-1.159-30.085
			c-0.348-10.489,1.281-20.988-0.147-31.472C-245.199,342.75-245.184,336.762-245.17,330.775z"/>
		<path class="st10" d="M780.698,1193.292c-22.91-13.362-47.825-20.912-73.811-25.215c-13.082-2.167-26.327-1.808-39.539-2.042
			c-26.015-0.462-51.6,3.006-77.149,7.398c-22.284,3.831-44.599,7.618-67.022,10.469c-18.282,2.325-36.789,3.179-54.949-1.355
			c-19.588-4.89-35.586-15.324-47.12-32.148c-6.79-9.904-12.533-20.318-15.39-32.11c5.407,7.233,8.375,15.829,13.108,23.451
			c3.171,5.107,6.463,10.054,10.586,14.469c10.565,11.313,22.78,12.16,35.948,4.706c9.449-5.348,16.997-13.028,24.094-21.17
			c12.696-14.568,22.904-30.899,33.169-47.147c36.028-57.024,69.54-115.548,103.071-174.054
			c15.523-27.086,30.815-54.305,46.118-81.516c7.978-14.187,19.318-25.497,31.43-35.926c13.452-11.582,27.874-21.784,44.939-27.86
			c30.016-10.687,57.978-6.234,84.373,10.585c19.518,12.437,34.671,29.384,47.253,48.505c15.649,23.781,30.482,48.098,45.821,72.086
			c18.842,29.466,38.66,58.277,58.891,86.803c4.904,6.914,10.014,13.683,15.03,20.519c-2.397,2.531,0.003,3.382,1.583,4.52
			c0.072,1.87,1.313,3.151,2.244,4.618c11.999,18.917,25.298,36.868,39.909,53.848c2.926,4.107,6.204,7.861,10.546,10.552
			c0.168,0.849,0.724,1.286,1.538,1.449c0,0-0.05-0.085-0.05-0.085c-0.002,0.519-0.003,1.037-0.005,1.556
			c2.591,3.02,4.212,7.187,8.997,7.613c7.429,6.98,14.859,13.96,22.289,20.941c0.084,3.898,2.864,5.121,5.971,6.02
			c2.095,3.655,5.915,5.223,9.118,7.537c27.912,22.799,58.985,39.985,93.074,51.529c21.511,7.285,43.577,12.058,66.422,13.211
			c6.687,0.337,13.387,1.171,20.106,1.045c26.497-0.5,52.488-4.408,78.028-11.526c51.448-14.339,97.042-40.074,139.79-71.422
			c22.548-16.535,43.785-34.6,64.39-53.504c13.08-12,25.841-24.308,37.957-37.218c25.765-27.453,51.016-55.386,74.039-85.239
			c3.805-4.933,7.876-9.664,11.589-14.664c1.887-2.541,3.665-1.925,5.74-0.633c-8.205,16.559-17.666,32.429-26.854,48.437
			c-28.105,48.963-56.699,97.64-87.397,145.042c-13.99,21.602-28.139,43.138-44.382,63.12c-23.823,29.307-49.76,56.71-77.008,82.859
			c-23.659,22.705-48.906,43.463-76.178,61.72c-47.377,31.715-99.141,52.523-155.393,61.762c-18.44,3.029-37.026,5.198-55.687,6.807
			c-22.674,1.955-45.351,3.174-68.077,2.406c-41.21-1.394-81.399-7.985-119.379-24.967c-36.685-16.403-67.684-40.322-93.471-71.036
			c-9.634-11.474-18.918-23.242-28.401-34.843c-10.629-13.002-22.78-24.505-35.263-35.679c-0.919-0.823-1.73-1.767-2.592-2.656
			c0.251-4.158-2.773-5.185-5.87-6.144c-1.877-2.742-3.79-5.438-7.429-5.996C800.795,1204.858,791.123,1198.518,780.698,1193.292z"
			/>
		<path class="st10" d="M679.344,610.07c-39.724-0.231-75.878-11.476-107.039-36.467c-30.191-24.214-48.998-55.617-55.652-93.901
			c-9.959-57.305,7.104-107.036,43.416-150.997c25.648-31.051,58.261-52.1,96.361-64.707c23.713-7.846,48.166-11.328,73.068-9.51
			c41.221,3.009,77.714,17.644,107.596,46.777c23.788,23.193,38.353,51.491,44.186,84.167c8.013,44.885-1.898,86.337-25.304,124.776
			c-26.659,43.779-64.968,73.317-113.304,89.781C722.238,606.949,701.092,610.536,679.344,610.07z"/>
		<path class="st11" d="M1043.284,1074.724c-14.611-16.98-27.91-34.931-39.909-53.848c-0.931-1.467-2.172-2.748-2.242-4.618
			c0.001,0,0.724,0.035,0.724,0.035l0.724-0.007c14.109,18.905,28.218,37.809,42.326,56.714
			C1044.365,1073.575,1043.824,1074.149,1043.284,1074.724z"/>
		<path class="st12" d="M1043.284,1074.724c0.541-0.575,1.082-1.149,1.622-1.724c3.866,3.677,7.083,7.884,10.045,12.3
			c-0.375,0.038-0.749,0.03-1.121-0.024C1049.487,1082.585,1046.209,1078.831,1043.284,1074.724z"/>
		<path class="st13" d="M1101.688,1130.306c-3.203-2.314-7.023-3.882-9.115-7.537c0.613-0.037,1.223-0.074,1.833-0.111
			c3.245,1.722,6.651,3.183,9.369,5.763C1103.079,1129.049,1102.384,1129.677,1101.688,1130.306z"/>
		<path class="st14" d="M1064.31,1095.808c-4.786-0.427-6.406-4.594-8.998-7.613c0.713-0.017,1.426-0.034,2.139-0.051
			C1060.149,1090.33,1062.431,1092.889,1064.31,1095.808z"/>
		<path class="st15" d="M1094.406,1122.658c-0.61,0.037-1.221,0.074-1.833,0.111c-3.109-0.899-5.889-2.121-5.973-6.02
			C1089.201,1118.718,1091.803,1120.688,1094.406,1122.658z"/>
		<path class="st16" d="M1002.58,1016.286l-0.724,0.007c0,0-0.723-0.035-0.724-0.035c-1.581-1.138-3.981-1.988-1.584-4.52
			C1000.66,1013.185,1002.114,1014.406,1002.58,1016.286z"/>
		<path class="st17" d="M1053.83,1085.276c0.373,0.054,0.747,0.062,1.121,0.024c0.139,0.475,0.278,0.949,0.417,1.424
			C1054.553,1086.562,1053.998,1086.124,1053.83,1085.276z"/>
		<path class="st18" d="M1057.451,1088.144c-0.713,0.017-1.426,0.035-2.139,0.051c0.002-0.519,0.004-1.038,0.006-1.556
			C1056.459,1086.531,1056.953,1087.34,1057.451,1088.144z"/>
		<path class="st19" d="M780.698,1193.292c10.426,5.226,20.098,11.566,28.741,19.427c-0.615,0.036-1.227,0.073-1.84,0.109
			c-9.759-6.43-19.882-12.249-30.074-17.955C778.733,1194.649,780.029,1194.6,780.698,1193.292z"/>
		<path class="st20" d="M807.598,1212.828c0.612-0.036,1.225-0.073,1.84-0.109c3.642,0.557,5.555,3.254,7.43,5.996
			c-0.534,0.011-1.066,0.022-1.599,0.033C812.483,1217.071,809.729,1215.354,807.598,1212.828z"/>
		<path class="st21" d="M815.27,1218.748c0.532-0.011,1.065-0.021,1.599-0.033c3.098,0.958,6.123,1.985,5.871,6.143
			C820.25,1222.822,817.76,1220.784,815.27,1218.748z"/>
	</g>
</g>
</svg>
